<svg xmlns="http://www.w3.org/2000/svg" xmlns:xlink="http://www.w3.org/1999/xlink" width="0" height="0" style="position:absolute">
	
		<symbol id="box-1" viewBox="0 0 512 512">
			<path d="M491.729 112.971L259.261.745a7.503 7.503 0 0 0-6.521 0L20.271 112.971a7.5 7.5 0 0 0-4.239 6.754v272.549a7.5 7.5 0 0 0 4.239 6.754l232.468 112.226a7.504 7.504 0 0 0 6.522 0l232.468-112.226a7.5 7.5 0 0 0 4.239-6.754V119.726a7.502 7.502 0 0 0-4.239-6.755zM256 15.828l215.217 103.897-62.387 30.118a7.434 7.434 0 0 0-1.27-.8L193.805 45.853 256 15.828zm-79.133 38.505l214.904 103.746-44.015 21.249L132.941 75.624l43.926-21.291zm219.932 117.974v78.546l-41.113 19.848v-78.546l41.113-19.848zm84.169 215.261L263.5 492.55V236.658l51.873-25.042a7.5 7.5 0 1 0-6.522-13.508L256 223.623l-20.796-10.04a7.498 7.498 0 0 0-10.015 3.493 7.5 7.5 0 0 0 3.493 10.015l19.818 9.567V492.55L31.032 387.566V131.674l165.6 79.945a7.463 7.463 0 0 0 3.255.748 7.5 7.5 0 0 0 3.266-14.256l-162.37-78.386 74.505-35.968L340.582 192.52c.033.046.07.087.104.132v89.999a7.502 7.502 0 0 0 10.761 6.754l56.113-27.089a7.499 7.499 0 0 0 4.239-6.754v-90.495l69.169-33.392v255.893z"></path><path d="M92.926 358.479L58.811 342.01a7.5 7.5 0 0 0-6.522 13.508l34.115 16.469a7.463 7.463 0 0 0 3.255.748 7.5 7.5 0 0 0 6.759-4.241 7.499 7.499 0 0 0-3.492-10.015zM124.323 338.042l-65.465-31.604a7.501 7.501 0 0 0-6.521 13.509l65.465 31.604a7.477 7.477 0 0 0 3.255.748 7.5 7.5 0 0 0 3.266-14.257z"></path>
		</symbol>
	
		<symbol id="box-2" viewBox="0 0 512 512">
			<path d="M470.573 369.837c-1.951-5.285-7.815-7.988-13.1-6.038l-106.072 39.139c-5.285 1.95-7.988 7.815-6.038 13.1a10.204 10.204 0 0 0 9.57 6.671 10.2 10.2 0 0 0 3.53-.633l106.072-39.139c5.285-1.95 7.988-7.815 6.038-13.1zM335.337 419.738c-1.949-5.286-7.815-7.989-13.1-6.039l-4.492 1.657c-5.284 1.95-7.988 7.815-6.038 13.099a10.204 10.204 0 0 0 9.57 6.672 10.2 10.2 0 0 0 3.53-.633l4.492-1.657c5.284-1.95 7.988-7.814 6.038-13.099zM470.573 328.276c-1.951-5.285-7.815-7.986-13.1-6.038l-83.825 30.93c-5.285 1.95-7.988 7.815-6.038 13.1a10.204 10.204 0 0 0 9.57 6.671 10.2 10.2 0 0 0 3.53-.633l83.825-30.93c5.285-1.95 7.988-7.815 6.038-13.1zM470.573 287.147c-1.951-5.285-7.815-7.986-13.1-6.038l-83.825 30.93c-5.285 1.95-7.988 7.815-6.038 13.1a10.204 10.204 0 0 0 9.57 6.671 10.2 10.2 0 0 0 3.53-.633l83.825-30.93c5.285-1.95 7.988-7.815 6.038-13.1z"></path><path d="M505.332 100.528L259.531 9.832a10.207 10.207 0 0 0-7.061 0L6.669 100.528l-.002.008c-.805.298-1.579.692-2.299 1.193A10.201 10.201 0 0 0 0 110.097v291.806a10.2 10.2 0 0 0 6.668 9.569l245.801 90.696c1.146.423 2.341.63 3.53.63 1.201 0 2.396-.218 3.528-.636l.004.006 245.801-90.696a10.2 10.2 0 0 0 6.668-9.569V110.097a10.2 10.2 0 0 0-6.668-9.569zM245.801 477.965l-225.403-83.17V124.732l45.896 16.936v123.578a10.2 10.2 0 0 0 6.668 9.569l110.151 40.645a10.2 10.2 0 0 0 13.73-9.569V189.838l48.956 18.064v270.063zm-69.355-295.654v108.943l-89.753-33.118V149.193l89.753 33.118zm-70.489-47.834l80.688-29.773 80.688 29.773-80.688 29.773-80.688-29.773zM256 189.922l-40.001-14.76 84.329-31.117a10.2 10.2 0 0 0 0-19.138L190.176 84.263a10.21 10.21 0 0 0-7.062 0L76.383 123.647l-36.72-13.55L256 30.273l216.337 79.825L256 189.922zm235.602 204.873L266.2 477.964V207.902l225.402-83.17v270.063z"></path>
		</symbol>
	
		<symbol id="boxes" viewBox="0 0 512.003 512.003">
			<path d="M277.501 409.423c-3.223-8.858-11.721-14.808-21.143-14.808a22.46 22.46 0 0 0-7.694 1.36c-11.657 4.244-17.688 17.181-13.447 28.839 3.224 8.857 11.722 14.807 21.144 14.807a22.45 22.45 0 0 0 7.693-1.36c11.658-4.243 17.69-17.18 13.447-28.838zm-18.576 14.743a7.464 7.464 0 0 1-2.563.456 7.526 7.526 0 0 1-7.05-4.938c-1.414-3.886.597-8.199 4.482-9.613a7.464 7.464 0 0 1 2.563-.456 7.525 7.525 0 0 1 7.049 4.939c1.415 3.885-.595 8.197-4.481 9.612z"></path><path d="M511.548 340.263l-10.262-28.19a7.474 7.474 0 0 0-3.832-4.208l-.045-.023c-.112-.053-.229-.094-.344-.141-.108-.044-.214-.094-.324-.133-.026-.01-.054-.016-.081-.024a7.454 7.454 0 0 0-4.985.046l-24.525 8.919-52.171-143.348-.005-.01-20.514-56.368a7.532 7.532 0 0 0-7.05-4.931c-.87 0-1.74.15-2.56.45-3.89 1.41-5.9 5.73-4.49 9.61l17.961 49.332-96.315 35.054-.005.001c-.003.001-.005.003-.008.003l-58.718 21.37-39.336-108.055 51.687-18.81 11.116 30.534a7.518 7.518 0 0 0 7.04 4.941c.88 0 1.74-.15 2.57-.461l37.589-13.68a7.453 7.453 0 0 0 4.23-3.87 7.46 7.46 0 0 0 .624-4.246l-.002-.023a7.35 7.35 0 0 0-.116-.584c-.013-.055-.02-.107-.033-.162a7.432 7.432 0 0 0-.222-.724L307.31 81.997l51.676-18.807L370.1 93.721c1.08 2.95 3.91 4.94 7.05 4.94.87 0 1.74-.15 2.57-.46 3.88-1.41 5.89-5.721 4.48-9.61l-13.68-37.589a7.539 7.539 0 0 0-5.89-4.84 7.462 7.462 0 0 0-3.72.359l-65.744 23.931c-.011.004-.023.005-.034.009-.02.007-.038.017-.058.024l-37.465 13.638c-.022.008-.044.01-.066.018-.037.014-.072.032-.109.046l-65.669 23.903a7.453 7.453 0 0 0-4.23 3.87 7.428 7.428 0 0 0-.25 5.74l44.458 122.155 42.753 117.472a62.053 62.053 0 0 0-16.939-2.699L149.248 57.046c-7.072-19.429-28.632-29.482-48.063-22.412l-.009.004L4.953 69.342l-.005.002-.016.005c-.173.063-.337.138-.502.212-.063.028-.129.051-.191.081-.162.077-.316.167-.47.255-.063.036-.13.067-.192.106-.148.09-.286.19-.426.289-.062.044-.128.084-.188.129-.13.099-.251.206-.374.313-.062.055-.129.104-.189.16-.116.106-.222.223-.33.336-.059.063-.122.12-.179.184-.102.115-.195.238-.29.359-.054.068-.113.134-.164.205-.086.118-.162.242-.241.365-.051.08-.107.156-.155.237-.072.122-.134.25-.199.376-.045.087-.095.172-.137.261-.058.124-.105.252-.157.379-.039.097-.083.189-.117.287-.044.124-.078.252-.115.378-.031.104-.067.207-.094.313-.031.124-.052.252-.077.378-.022.11-.049.22-.066.331-.02.128-.027.258-.04.387-.011.112-.028.224-.034.337-.007.132-.002.264-.002.396 0 .113-.006.226-.001.339.006.134.025.269.038.403.011.111.017.223.033.335.02.133.052.266.079.399.023.113.04.227.068.34.033.133.08.264.121.396.034.109.061.22.1.329l.003.007a.074.074 0 0 0 .004.014l10.261 28.19c.077.212.183.405.276.606.073.156.132.322.215.471.117.211.258.399.393.596.085.123.157.258.249.375.161.207.345.391.525.577.084.087.158.186.246.269.203.191.426.357.647.523.08.061.152.132.234.188.239.165.495.304.751.439.076.04.146.092.223.13.262.128.537.227.812.323.08.028.155.068.236.094.282.089.572.146.864.202.08.015.158.043.239.055a7.31 7.31 0 0 0 1.778.061c.044-.004.087-.013.131-.017.17-.018.339-.037.509-.066.078-.014.156-.035.234-.051.135-.028.27-.054.404-.09.143-.037.284-.086.426-.133.067-.021.134-.039.2-.063l.008-.003.012-.004.009-.004 89.187-32.168L215.28 370.038c-18.866 16.502-26.723 43.526-17.648 68.457 8.956 24.605 32.559 41.138 58.734 41.138a62.309 62.309 0 0 0 21.371-3.784c15.687-5.71 28.211-17.185 35.267-32.315a62.325 62.325 0 0 0 5.859-25.218l188.201-68.439.002-.001h.001c.05-.018.096-.042.145-.061.191-.074.38-.149.561-.237.077-.037.148-.082.224-.122.148-.077.296-.152.437-.238.08-.05.154-.108.232-.159.128-.086.259-.169.381-.261.039-.03.073-.064.111-.094.154-.123.307-.246.45-.379.024-.026.046-.051.07-.074.151-.146.299-.293.438-.449.028-.031.051-.066.079-.098.13-.152.257-.306.374-.467.013-.017.023-.036.035-.054.127-.179.249-.361.36-.55.02-.034.036-.071.056-.106.099-.174.194-.349.279-.53.033-.071.059-.146.089-.218.064-.148.129-.296.184-.448.037-.105.064-.213.096-.319.038-.123.081-.245.112-.37.046-.185.08-.373.112-.561.008-.05.022-.098.029-.147a7.473 7.473 0 0 0-.373-3.671zM293.217 87.127l8.545 23.49-23.492 8.55-8.55-23.489 23.497-8.551zm44.46 122.154l8.551 23.488-23.499 8.552-8.548-23.489 23.496-8.551zm-89.268 32.487l51.679-18.807 11.116 30.534a7.52 7.52 0 0 0 7.05 4.939c.87 0 1.73-.159 2.56-.46l37.589-13.68c3.89-1.41 5.9-5.72 4.48-9.61l-11.115-30.532 51.687-18.811 49.605 136.287-149.639 54.417a62.877 62.877 0 0 0-9.305-8.686l-45.707-125.591zM121.057 67.305c-.044-.12-.099-.233-.148-.351-.049-.115-.093-.234-.147-.347-.049-.103-.107-.197-.16-.296-.066-.123-.129-.249-.201-.367-.05-.081-.107-.155-.16-.234-.085-.128-.167-.258-.26-.379-.048-.064-.103-.121-.153-.184-.104-.129-.207-.258-.32-.379-.045-.049-.096-.093-.143-.141-.124-.126-.247-.252-.379-.369-.038-.033-.079-.062-.117-.094a7.003 7.003 0 0 0-.449-.36c-.022-.016-.046-.028-.068-.045a7.594 7.594 0 0 0-.536-.351l-.043-.022a7.526 7.526 0 0 0-3.384-1.009h-.032a7.427 7.427 0 0 0-.7-.001c-.043.002-.086.01-.129.013a7.306 7.306 0 0 0-.606.059c-.097.015-.193.039-.29.058-.148.027-.297.052-.445.089-.168.042-.335.099-.502.152-.074.024-.149.042-.223.068l-.01.004-.011.003-.009.004-89.187 32.168-5.131-14.096 89.176-32.164.005-.002.016-.005c11.66-4.243 24.595 1.789 28.838 13.448l107.034 294.077a62.754 62.754 0 0 0-7.204 2.136 62.807 62.807 0 0 0-6.889 3.004L121.057 67.305zm178.35 369.887c-5.362 11.499-14.88 20.221-26.802 24.56a47.354 47.354 0 0 1-16.241 2.88c-19.893 0-37.832-12.566-44.638-31.269-8.958-24.61 3.777-51.921 28.388-60.88a47.35 47.35 0 0 1 16.241-2.88c19.892 0 37.832 12.566 44.638 31.27 4.34 11.922 3.777 24.821-1.586 36.319zm17.814-34.242a63.548 63.548 0 0 0-2.133-7.206 62.19 62.19 0 0 0-2.995-6.891l177.662-64.606 5.131 14.096-177.665 64.607z"></path>
		</symbol>
	
		<symbol id="message" viewBox="0 0 512 512">
			<path d="M511.609 197.601c-.001-.77-.173-1.933-.472-2.603a13.069 13.069 0 0 0-5.154-7.281l-73.292-50.948V82.153c0-7.24-5.872-13.112-13.112-13.112H335.26l-71.743-49.878a13.104 13.104 0 0 0-14.935-.026l-72.206 49.904h-83.95c-7.242 0-13.112 5.872-13.112 13.112v53.973L5.666 187.027c-3.623 2.504-5.583 6.507-5.645 10.6-.004.077-.021.15-.021.23l.391 284.235a13.118 13.118 0 0 0 3.852 9.266 13.114 13.114 0 0 0 9.26 3.827h.018l485.385-.667c7.24-.01 13.104-5.889 13.094-13.13l-.391-283.787zm-78.919-28.893l41.898 29.118-41.898 29.128v-58.246zM256.015 45.884l33.31 23.156h-66.812l33.502-23.156zM105.538 95.265h300.928v149.921L305.43 315.428l-41.194-31.954c-.064-.05-.119-.081-.181-.126-4.604-3.454-11.116-3.581-15.894.126l-41.493 32.185-101.13-69.893V95.265zm-26.224 72.738v59.64l-43.146-29.819 43.146-29.821zm-53.056 54.864l158.669 109.655L26.578 455.346l-.32-232.479zm25.617 246.042l204.324-158.484L459.79 468.348l-407.915.561zm275.269-136.638L485.42 222.235l.32 233.059-158.596-123.023z"></path><path d="M344.77 147.713H167.234c-7.24 0-13.112 5.872-13.112 13.112s5.872 13.112 13.112 13.112H344.77c7.242 0 13.112-5.872 13.112-13.112s-5.87-13.112-13.112-13.112zM344.77 215.895H167.234c-7.24 0-13.112 5.872-13.112 13.112s5.872 13.112 13.112 13.112H344.77c7.242 0 13.112-5.872 13.112-13.112s-5.87-13.112-13.112-13.112z"></path>
		</symbol>
	
		<symbol id="moving-truck" viewBox="0 0 512 512">
			<path d="M328 36H216c-4.424 0-8 3.584-8 8s3.576 8 8 8h112c4.424 0 8-3.584 8-8s-3.576-8-8-8z"></path><path d="M288 36c-4.424 0-8 3.584-8 8v40c0 4.416 3.576 8 8 8s8-3.584 8-8V44c0-4.416-3.576-8-8-8z"></path><path d="M288 76h-32c-4.424 0-8 3.584-8 8s3.576 8 8 8h32c4.424 0 8-3.584 8-8s-3.576-8-8-8z"></path><path d="M256 36c-4.424 0-8 3.584-8 8v40c0 4.416 3.576 8 8 8s8-3.584 8-8V44c0-4.416-3.576-8-8-8zM216 196h-96c-4.424 0-8 3.584-8 8s3.576 8 8 8h96c4.424 0 8-3.584 8-8s-3.576-8-8-8zM328 180c-4.424 0-8 3.584-8 8v136c0 4.424 3.576 8 8 8s8-3.576 8-8V188c0-4.416-3.576-8-8-8zM504 380h-23.832c-4.424 0-8 3.576-8 8s3.576 8 8 8H504c4.424 0 8-3.576 8-8s-3.576-8-8-8z"></path><path d="M504 380c-4.424 0-8 3.576-8 8v32c0 4.424 3.576 8 8 8s8-3.576 8-8v-32c0-4.424-3.576-8-8-8zM80 412h-.024l-56 .168A7.993 7.993 0 0 0 16 420.192a7.998 7.998 0 0 0 8 7.976h.024l56-.168A7.993 7.993 0 0 0 88 419.976 7.998 7.998 0 0 0 80 412zM496 340h-8c-4.424 0-8 3.576-8 8s3.576 8 8 8h8c4.424 0 8-3.576 8-8s-3.576-8-8-8z"></path><path d="M496 284c-4.424 0-8 3.576-8 8v96c0 4.424 3.576 8 8 8s8-3.576 8-8v-96c0-4.424-3.576-8-8-8zM448 180H328c-4.424 0-8 3.584-8 8s3.576 8 8 8h120c4.424 0 8-3.584 8-8s-3.576-8-8-8z"></path><path d="M503.264 288.648l-48-104c-1.848-4.008-6.584-5.76-10.616-3.912-4.016 1.848-5.76 6.608-3.912 10.616l48 104a8.003 8.003 0 0 0 10.616 3.912c4.016-1.848 5.76-6.608 3.912-10.616zM24 380c-4.424 0-8 3.576-8 8v32.504c0 4.424 3.576 8 8 8s8-3.584 8-8V388c0-4.424-3.576-8-8-8zM8 276c-4.424 0-8 3.576-8 8v104c0 4.424 3.576 8 8 8s8-3.576 8-8V284c0-4.424-3.576-8-8-8z"></path><path d="M328 276H8c-4.424 0-8 3.576-8 8s3.576 8 8 8h320c4.424 0 8-3.576 8-8s-3.576-8-8-8zM48 380H8c-4.424 0-8 3.576-8 8s3.576 8 8 8h40c4.424 0 8-3.576 8-8s-3.576-8-8-8zM128 364c-30.872 0-56 25.128-56 56s25.128 56 56 56 56-25.128 56-56-25.128-56-56-56zm0 96c-22.056 0-40-17.944-40-40s17.944-40 40-40 40 17.944 40 40-17.944 40-40 40z"></path><path d="M128 396c-13.232 0-24 10.768-24 24s10.768 24 24 24 24-10.768 24-24-10.768-24-24-24zm0 32c-4.416 0-8-3.584-8-8s3.584-8 8-8 8 3.584 8 8-3.584 8-8 8zM392 396c-13.232 0-24 10.768-24 24s10.768 24 24 24 24-10.768 24-24-10.768-24-24-24zm0 32c-4.416 0-8-3.584-8-8s3.584-8 8-8 8 3.584 8 8-3.584 8-8 8z"></path><path d="M392 364c-30.872 0-56 25.128-56 56s25.128 56 56 56 56-25.128 56-56-25.128-56-56-56zm0 96c-22.056 0-40-17.944-40-40s17.944-40 40-40 40 17.944 40 40-17.944 40-40 40z"></path><path d="M344.2 412H176c-4.424 0-8 3.576-8 8s3.576 8 8 8h168.2c4.424 0 8-3.576 8-8s-3.576-8-8-8zM504 412h-64c-4.424 0-8 3.576-8 8s3.576 8 8 8h64c4.424 0 8-3.576 8-8s-3.576-8-8-8zM496 284h-96c-4.424 0-8 3.576-8 8s3.576 8 8 8h96c4.424 0 8-3.576 8-8s-3.576-8-8-8z"></path><path d="M400 284c-13.232 0-24-10.768-24-24 0-4.416-3.576-8-8-8s-8 3.584-8 8c0 22.056 17.944 40 40 40 4.424 0 8-3.576 8-8s-3.576-8-8-8z"></path><path d="M368 180c-4.424 0-8 3.584-8 8v72c0 4.424 3.576 8 8 8s8-3.576 8-8v-72c0-4.416-3.576-8-8-8zM328 36c-4.424 0-8 3.584-8 8v240c0 4.424 3.576 8 8 8s8-3.576 8-8V44c0-4.416-3.576-8-8-8zM216 36c-4.424 0-8 3.584-8 8v240c0 4.424 3.576 8 8 8s8-3.576 8-8V44c0-4.416-3.576-8-8-8zM120 100c-4.424 0-8 3.584-8 8v176c0 4.424 3.576 8 8 8s8-3.576 8-8V108c0-4.416-3.576-8-8-8zM168 196c-4.424 0-8 3.584-8 8v24c0 4.416 3.576 8 8 8s8-3.584 8-8v-24c0-4.416-3.576-8-8-8z"></path><path d="M216 100h-96c-4.424 0-8 3.584-8 8s3.576 8 8 8h96c4.424 0 8-3.584 8-8s-3.576-8-8-8z"></path><path d="M168 100c-4.424 0-8 3.584-8 8v16c0 4.416 3.576 8 8 8s8-3.584 8-8v-16c0-4.416-3.576-8-8-8zM24 156c-4.424 0-8 3.584-8 8v120c0 4.424 3.576 8 8 8s8-3.576 8-8V164c0-4.416-3.576-8-8-8z"></path><path d="M120 156H24c-4.424 0-8 3.584-8 8s3.576 8 8 8h96c4.424 0 8-3.584 8-8s-3.576-8-8-8z"></path><path d="M56 156c-4.424 0-8 3.584-8 8v24c0 4.416 3.576 8 8 8s8-3.584 8-8v-24c0-4.416-3.576-8-8-8z"></path><path d="M88 180H56c-4.424 0-8 3.584-8 8s3.576 8 8 8h32c4.424 0 8-3.584 8-8s-3.576-8-8-8z"></path><path d="M88 156c-4.424 0-8 3.584-8 8v24c0 4.416 3.576 8 8 8s8-3.584 8-8v-24c0-4.416-3.576-8-8-8z"></path>
		</symbol>
	
		<symbol id="phone-call" viewBox="0 0 473.806 473.806">
			<path d="M374.456 293.506c-9.7-10.1-21.4-15.5-33.8-15.5-12.3 0-24.1 5.3-34.2 15.4l-31.6 31.5c-2.6-1.4-5.2-2.7-7.7-4-3.6-1.8-7-3.5-9.9-5.3-29.6-18.8-56.5-43.3-82.3-75-12.5-15.8-20.9-29.1-27-42.6 8.2-7.5 15.8-15.3 23.2-22.8 2.8-2.8 5.6-5.7 8.4-8.5 21-21 21-48.2 0-69.2l-27.3-27.3c-3.1-3.1-6.3-6.3-9.3-9.5-6-6.2-12.3-12.6-18.8-18.6-9.7-9.6-21.3-14.7-33.5-14.7s-24 5.1-34 14.7l-.2.2-34 34.3c-12.8 12.8-20.1 28.4-21.7 46.5-2.4 29.2 6.2 56.4 12.8 74.2 16.2 43.7 40.4 84.2 76.5 127.6 43.8 52.3 96.5 93.6 156.7 122.7 23 10.9 53.7 23.8 88 26 2.1.1 4.3.2 6.3.2 23.1 0 42.5-8.3 57.7-24.8.1-.2.3-.3.4-.5 5.2-6.3 11.2-12 17.5-18.1 4.3-4.1 8.7-8.4 13-12.9 9.9-10.3 15.1-22.3 15.1-34.6 0-12.4-5.3-24.3-15.4-34.3l-54.9-55.1zm35.8 105.3c-.1 0-.1.1 0 0-3.9 4.2-7.9 8-12.2 12.2-6.5 6.2-13.1 12.7-19.3 20-10.1 10.8-22 15.9-37.6 15.9-1.5 0-3.1 0-4.6-.1-29.7-1.9-57.3-13.5-78-23.4-56.6-27.4-106.3-66.3-147.6-115.6-34.1-41.1-56.9-79.1-72-119.9-9.3-24.9-12.7-44.3-11.2-62.6 1-11.7 5.5-21.4 13.8-29.7l34.1-34.1c4.9-4.6 10.1-7.1 15.2-7.1 6.3 0 11.4 3.8 14.6 7l.3.3c6.1 5.7 11.9 11.6 18 17.9 3.1 3.2 6.3 6.4 9.5 9.7l27.3 27.3c10.6 10.6 10.6 20.4 0 31-2.9 2.9-5.7 5.8-8.6 8.6-8.4 8.6-16.4 16.6-25.1 24.4-.2.2-.4.3-.5.5-8.6 8.6-7 17-5.2 22.7l.3.9c7.1 17.2 17.1 33.4 32.3 52.7l.1.1c27.6 34 56.7 60.5 88.8 80.8 4.1 2.6 8.3 4.7 12.3 6.7 3.6 1.8 7 3.5 9.9 5.3.4.2.8.5 1.2.7 3.4 1.7 6.6 2.5 9.9 2.5 8.3 0 13.5-5.2 15.2-6.9l34.2-34.2c3.4-3.4 8.8-7.5 15.1-7.5 6.2 0 11.3 3.9 14.4 7.3l.2.2 55.1 55.1c10.3 10.2 10.3 20.7.1 31.3zM256.056 112.706c26.2 4.4 50 16.8 69 35.8s31.3 42.8 35.8 69c1.1 6.6 6.8 11.2 13.3 11.2.8 0 1.5-.1 2.3-.2 7.4-1.2 12.3-8.2 11.1-15.6-5.4-31.7-20.4-60.6-43.3-83.5s-51.8-37.9-83.5-43.3c-7.4-1.2-14.3 3.7-15.6 11s3.5 14.4 10.9 15.6zM473.256 209.006c-8.9-52.2-33.5-99.7-71.3-137.5s-85.3-62.4-137.5-71.3c-7.3-1.3-14.2 3.7-15.5 11-1.2 7.4 3.7 14.3 11.1 15.6 46.6 7.9 89.1 30 122.9 63.7 33.8 33.8 55.8 76.3 63.7 122.9 1.1 6.6 6.8 11.2 13.3 11.2.8 0 1.5-.1 2.3-.2 7.3-1.1 12.3-8.1 11-15.4z"></path>
		</symbol>
	
		<symbol id="shield" viewBox="-28 1 511 511.999">
			<path d="M403.164 85.2c-15.848-2.005-31.336-5.52-46.027-10.446a7.501 7.501 0 0 0-4.77 14.223c15.63 5.242 32.086 8.976 48.918 11.105 25.242 3.195 43.258 26.492 40.156 51.93-4.066 33.36-11.511 83.152-23.886 130.918-13.48 52.027-29.301 88.226-47.024 107.593-36.394 39.77-82.023 75.02-113.89 97.586-16.746 11.86-39.246 11.86-55.989 0-31.867-22.566-77.496-57.816-113.89-97.586-17.723-19.367-33.547-55.566-47.024-107.593-12.375-47.766-19.82-97.559-23.89-130.918-3.098-25.438 14.914-48.735 40.16-51.93 72.77-9.203 121-45.766 148.648-74.816C210.957 18.648 219.476 15 228.645 15s17.687 3.648 23.992 10.266c19.918 20.93 42.941 37.996 68.43 50.726a7.501 7.501 0 0 0 10.062-3.36c1.848-3.706.344-8.21-3.36-10.058-23.93-11.953-45.55-27.984-64.269-47.648C254.34 5.3 241.96 0 228.645 0c-13.317 0-25.696 5.3-34.856 14.926C167.82 42.21 122.512 76.55 54.125 85.199 20.711 89.426-3.141 120.215.957 153.83c6.984 57.288 28.25 196.023 74.738 246.823 37.29 40.746 83.82 76.707 116.285 99.7C202.945 508.117 215.793 512 228.645 512c12.847-.004 25.699-3.883 36.664-11.648 32.464-22.993 78.996-58.954 116.285-99.7 46.492-50.8 67.754-189.535 74.738-246.824 4.098-33.613-19.754-64.402-53.168-68.629zm0 0"></path><path d="M211.723 70.453c-37.942 32.832-82.235 54.32-131.645 63.867-15.055 2.91-25.219 17.145-23.14 32.41 3.496 25.668 10.644 73.672 19.218 106.766 15.63 60.336 30.742 83.309 38.36 91.629 25.039 27.36 71.5 63.918 96.964 83.273 5.055 3.84 11.11 5.758 17.165 5.758 6.054 0 12.109-1.918 17.164-5.758 25.464-19.355 71.925-55.914 96.964-83.273 7.618-8.32 22.73-31.293 38.36-91.629 8.578-33.101 15.722-81.101 19.222-106.766 2.079-15.265-8.09-29.5-23.144-32.41-49.41-9.547-93.703-31.035-131.645-63.867-9.648-8.348-24.195-8.348-33.843 0zm173.77 94.25c-3.454 25.34-10.497 72.676-18.88 105.031-15.8 60.993-30.71 80.68-34.902 85.266-25.152 27.48-74.8 66.117-94.98 81.453-4.762 3.621-11.41 3.621-16.172 0-20.18-15.336-69.829-53.976-94.977-81.453-4.195-4.586-19.105-24.273-34.906-85.266-8.38-32.347-15.422-79.687-18.875-105.03-1.008-7.38 3.879-14.255 11.12-15.657 52.028-10.05 98.665-32.676 138.618-67.25a10.835 10.835 0 0 1 7.106-2.633c2.539 0 5.082.879 7.105 2.633 39.953 34.574 86.59 57.2 138.617 67.25 7.242 1.402 12.13 8.277 11.125 15.656zm0 0"></path><path d="M187.05 234.066c-5.64-4.593-24.679-14.078-38.312 3.934-13.629 18.008-1.707 33.719 3.934 38.313l21.75 17.695c3.21 2.613 7.937 2.133 10.55-1.082a7.507 7.507 0 0 0-1.081-10.555l-21.75-17.695c-2.532-2.063-8.063-8.778-1.766-17.211 6.297-8.43 14.676-3.828 17.207-1.766l45.035 36.645a7.498 7.498 0 0 0 10.012-.492l65.902-65.286c4.793-4.75 12.551-4.71 17.301.082 4.746 4.79 4.707 12.551-.082 17.297l-78.496 77.766c-6.215 5.992-13.059 3.496-16.328.797l-12.461-10.137a7.5 7.5 0 1 0-9.469 11.633l12.461 10.14a27.308 27.308 0 0 0 17.184 6.11c7.23 0 14.039-2.8 19.172-7.887l78.492-77.762c10.668-10.57 10.75-27.847.18-38.515-10.567-10.664-27.844-10.746-38.512-.18l-61.118 60.547zm0 0"></path>
		</symbol>
	
		<symbol id="shipped" viewBox="0 0 512 512">
			<path d="M476.158 231.363l-13.259-53.035c3.625-.77 6.345-3.986 6.345-7.839v-8.551c0-18.566-15.105-33.67-33.67-33.67h-60.392V110.63c0-9.136-7.432-16.568-16.568-16.568H50.772c-9.136 0-16.568 7.432-16.568 16.568V256a8.017 8.017 0 0 0 16.034 0V110.63c0-.295.239-.534.534-.534h307.841c.295 0 .534.239.534.534v145.372a8.017 8.017 0 0 0 16.034 0v-9.088h94.569l.021.002.022-.001c11.637.008 21.518 7.646 24.912 18.171h-24.928a8.017 8.017 0 0 0-8.017 8.017v17.102c0 13.851 11.268 25.119 25.119 25.119h9.086v35.273h-20.962c-6.886-19.883-25.787-34.205-47.982-34.205s-41.097 14.322-47.982 34.205h-3.86v-60.393a8.017 8.017 0 0 0-16.034 0v60.391H192.817c-6.886-19.883-25.787-34.205-47.982-34.205s-41.097 14.322-47.982 34.205H50.772a.534.534 0 0 1-.534-.534v-17.637h34.739a8.017 8.017 0 0 0 0-16.034H8.017a8.017 8.017 0 0 0 0 16.034h26.188v17.637c0 9.136 7.432 16.568 16.568 16.568h43.304c-.002.178-.014.355-.014.534 0 27.996 22.777 50.772 50.772 50.772s50.772-22.776 50.772-50.772c0-.18-.012-.356-.014-.534h180.67c-.002.178-.014.355-.014.534 0 27.996 22.777 50.772 50.772 50.772 27.995 0 50.772-22.776 50.772-50.772 0-.18-.012-.356-.014-.534h26.203a8.017 8.017 0 0 0 8.017-8.017v-85.511c.001-21.112-15.576-38.653-35.841-41.738zm-100.976-87.062h60.392c9.725 0 17.637 7.912 17.637 17.637v.534h-78.029v-18.171zm0 86.58v-52.376h71.235l13.094 52.376h-84.329zM144.835 401.904c-19.155 0-34.739-15.583-34.739-34.739s15.584-34.739 34.739-34.739c19.155 0 34.739 15.583 34.739 34.739s-15.584 34.739-34.739 34.739zm282.188 0c-19.155 0-34.739-15.583-34.739-34.739s15.584-34.739 34.739-34.739c19.155 0 34.739 15.583 34.739 34.739s-15.584 34.739-34.739 34.739zm68.944-102.614h-9.086c-5.01 0-9.086-4.076-9.086-9.086v-9.086h18.171v18.172z"></path><path d="M144.835 350.597c-9.136 0-16.568 7.432-16.568 16.568 0 9.136 7.432 16.568 16.568 16.568 9.136 0 16.568-7.432 16.568-16.568 0-9.136-7.432-16.568-16.568-16.568zM427.023 350.597c-9.136 0-16.568 7.432-16.568 16.568 0 9.136 7.432 16.568 16.568 16.568 9.136 0 16.568-7.432 16.568-16.568 0-9.136-7.432-16.568-16.568-16.568zM332.96 316.393H213.244a8.017 8.017 0 0 0 0 16.034H332.96a8.017 8.017 0 0 0 0-16.034zM127.733 282.188H25.119a8.017 8.017 0 0 0 0 16.034h102.614a8.017 8.017 0 0 0 0-16.034zM278.771 173.37a8.017 8.017 0 0 0-11.337.001l-71.292 71.291-37.087-37.087a8.016 8.016 0 0 0-11.337 0 8.016 8.016 0 0 0 0 11.337l42.756 42.756c1.565 1.566 3.617 2.348 5.668 2.348s4.104-.782 5.668-2.348l76.96-76.96a8.018 8.018 0 0 0 .001-11.338z"></path>
		</symbol>
	
		<symbol id="smile" viewBox="0 0 512 512">
			<path d="M437.02 74.98C388.668 26.63 324.379 0 256 0 187.617 0 123.332 26.629 74.98 74.98 26.63 123.332 0 187.621 0 256s26.629 132.668 74.98 181.02C123.332 485.37 187.617 512 256 512c68.379 0 132.668-26.629 181.02-74.98C485.37 388.668 512 324.379 512 256s-26.629-132.668-74.98-181.02zM256 482C131.383 482 30 380.617 30 256S131.383 30 256 30s226 101.383 226 226-101.383 226-226 226zm0 0"></path><path d="M396.453 240.871H356.29c-8.285 0-15 6.719-15 15 0 8.285 6.715 15 15 15h4.156C353.195 322.027 309.125 361.5 256 361.5c-53.172 0-97.27-39.54-104.465-90.758h4.309c8.281 0 15-6.715 15-15s-6.719-15-15-15h-40.168c-8.285 0-15 6.715-15 15s6.715 15 15 15h5.629C128.675 338.547 186.265 391.5 256 391.5c69.688 0 127.25-52.883 134.68-120.629h5.773c8.285 0 15-6.715 15-15 0-8.281-6.715-15-15-15zm0 0M336.336 182.633c8.281 0 15-6.715 15-15v-16.067c0-8.285-6.719-15-15-15-8.285 0-15 6.715-15 15v16.067c0 8.285 6.715 15 15 15zm0 0M175.664 182.633c8.285 0 15-6.715 15-15v-16.067c0-8.285-6.715-15-15-15-8.281 0-15 6.715-15 15v16.067c0 8.285 6.719 15 15 15zm0 0"></path>
		</symbol>
	
		<symbol id="tap" viewBox="-73 0 512 512.15596">
			<path d="M1.781 232.434a26.718 26.718 0 0 0 7.73 29.754c16.29 16.3 49.79 75.144 66.372 116.609 11.316 28.281 36.164 56.039 55.015 74.351a42.362 42.362 0 0 1 12.645 30.286v3.12c0 14.141 11.46 25.602 25.602 25.602h136.53c14.141 0 25.602-11.46 25.602-25.601V460.34a7.827 7.827 0 0 1 2.278-5.809c31.496-28.8 31.855-76.879 31.855-78.91v-135.09c.317-18.273-13.46-33.722-31.648-35.488a34.116 34.116 0 0 0-19.551 4.648v-13.27a33.933 33.933 0 0 0-17.219-29.726 33.927 33.927 0 0 0-34.347.535 33.732 33.732 0 0 0-50.836-25.796V127.3a67.41 67.41 0 0 0 34.136-58.88c0-37.702-30.566-68.265-68.27-68.265S109.41 30.72 109.41 68.422a67.415 67.415 0 0 0 34.133 58.879v137.386a94.409 94.409 0 0 1-4.063 29.758 8.626 8.626 0 0 1-6.152 5.735 8.223 8.223 0 0 1-7.68-2.016 121.288 121.288 0 0 1-17.644-21.144c-14.809-22.153-52.07-63.532-75.395-63.532a33.427 33.427 0 0 0-30.828 18.946zM126.477 68.422c0-28.277 22.921-51.2 51.199-51.2 28.277 0 51.199 22.923 51.199 51.2a50.682 50.682 0 0 1-17.066 38.215V68.422c0-18.852-15.282-34.133-34.133-34.133-18.852 0-34.133 15.281-34.133 34.133v38.215a50.695 50.695 0 0 1-17.066-38.215zm-32.7 218.07a138.648 138.648 0 0 0 20.164 24.106 25.249 25.249 0 0 0 23.536 6.136 25.72 25.72 0 0 0 18.175-16.828 111.14 111.14 0 0 0 4.957-35.219V68.423c0-9.426 7.641-17.067 17.067-17.067s17.066 7.641 17.066 17.067v179.2a8.534 8.534 0 1 0 17.067 0v-76.798c0-9.426 7.644-17.066 17.066-17.066 9.426 0 17.07 7.64 17.07 17.066v76.797a8.533 8.533 0 1 0 17.067 0v-51.2c0-9.425 7.64-17.066 17.066-17.066s17.067 7.641 17.067 17.067v59.734a8.533 8.533 0 0 0 17.066 0V239.09a16.921 16.921 0 0 1 5.008-12.059 17.267 17.267 0 0 1 13.312-4.965c9.219 1.204 16.04 9.172 15.813 18.465v135.09c0 .418-.434 42.668-26.317 66.324a24.902 24.902 0 0 0-7.816 18.395v26.215a8.534 8.534 0 0 1-8.535 8.535H169.145a8.534 8.534 0 0 1-8.536-8.535v-3.121a59.557 59.557 0 0 0-17.824-42.532c-14.457-14.035-40.312-41.609-51.047-68.453-17.562-43.879-52.308-104.476-70.16-122.328-4.062-4.059-5.422-7.816-4.039-11.16a16.827 16.827 0 0 1 15.07-8.406c11.598 0 43.043 28.75 61.168 55.937zm0 0"></path><path d="M322.742 367.09a8.534 8.534 0 0 0 8.535-8.535v-51.2c0-4.71-3.82-8.53-8.535-8.53a8.532 8.532 0 0 0-8.531 8.53v51.2a8.533 8.533 0 0 0 8.531 8.535zm0 0M314.21 418.29a8.52 8.52 0 0 0 6.032-2.5 34.644 34.644 0 0 0 11.035-23.103 8.426 8.426 0 0 0-8.328-8.41 8.582 8.582 0 0 0-8.738 8.215 18.773 18.773 0 0 1-6.035 11.23 8.535 8.535 0 0 0 6.035 14.567zm0 0M186.21 478.023h8.532a8.534 8.534 0 1 0 0-17.066h-8.531a8.533 8.533 0 1 0 0 17.066zm0 0M228.875 478.023h59.734a8.534 8.534 0 1 0 0-17.066h-59.734a8.532 8.532 0 0 0-8.531 8.531 8.533 8.533 0 0 0 8.531 8.535zm0 0M109.41 141.29a8.533 8.533 0 0 0 6.223-14.38C86.066 95.66 84.46 47.266 111.895 14.125a8.542 8.542 0 0 0 1.574-8.504A8.539 8.539 0 0 0 106.8.11a8.532 8.532 0 0 0-8.059 3.145c-32.906 39.766-31 97.828 4.45 135.348a8.538 8.538 0 0 0 6.218 2.687zm0 0M257.32 118.684a8.528 8.528 0 0 0 6.508.527 8.524 8.524 0 0 0 4.977-4.23c18.656-36.329 13.86-80.282-12.196-111.727a8.528 8.528 0 0 0-8.058-3.145 8.539 8.539 0 0 0-6.664 5.512 8.524 8.524 0 0 0 1.574 8.504c21.71 26.195 25.707 62.813 10.164 93.074-2.152 4.192-.496 9.332 3.695 11.485zm0 0"></path>
		</symbol>
	
		<symbol id="warehouse" viewBox="0 0 512 512">
			<path d="M507.785 146.242L260.318 1.175a8.53 8.53 0 0 0-8.439-.111L4.412 137.598A8.516 8.516 0 0 0 0 145.064v358.4a8.53 8.53 0 0 0 8.533 8.533H51.2a8.53 8.53 0 0 0 8.533-8.533V204.798h392.533v298.667a8.525 8.525 0 0 0 8.533 8.533h42.667a8.525 8.525 0 0 0 8.533-8.533V153.598a8.515 8.515 0 0 0-4.214-7.356zm-12.852 348.689h-25.6V196.264a8.53 8.53 0 0 0-8.533-8.533H51.2a8.536 8.536 0 0 0-8.533 8.533v298.667h-25.6V150.099L255.872 18.344l239.061 140.143v336.444z"></path><path d="M426.667 392.531h-102.4a8.525 8.525 0 0 0-8.533 8.533v102.4a8.525 8.525 0 0 0 8.533 8.533h102.4a8.525 8.525 0 0 0 8.533-8.533v-102.4a8.525 8.525 0 0 0-8.533-8.533zm-8.534 102.4H332.8v-85.333h85.333v85.333z"></path><path d="M384 401.064v25.6h-17.067v-25.6h-17.067v34.133a8.525 8.525 0 0 0 8.533 8.533h34.133a8.525 8.525 0 0 0 8.533-8.533v-34.133H384zM324.267 392.531h-102.4a8.53 8.53 0 0 0-8.533 8.533v102.4a8.53 8.53 0 0 0 8.533 8.533h102.4a8.525 8.525 0 0 0 8.533-8.533v-102.4a8.525 8.525 0 0 0-8.533-8.533zm-8.534 102.4H230.4v-85.333h85.333v85.333z"></path><path d="M281.6 401.064v25.6h-17.067v-25.6h-17.067v34.133a8.53 8.53 0 0 0 8.533 8.533h34.133a8.525 8.525 0 0 0 8.533-8.533v-34.133H281.6zM426.667 290.131h-102.4a8.525 8.525 0 0 0-8.533 8.533v102.4a8.525 8.525 0 0 0 8.533 8.533h102.4a8.525 8.525 0 0 0 8.533-8.533v-102.4a8.525 8.525 0 0 0-8.533-8.533zm-8.534 102.4H332.8v-85.333h85.333v85.333z"></path><path d="M384 298.664v25.6h-17.067v-25.6h-17.067v34.133a8.525 8.525 0 0 0 8.533 8.533h34.133a8.525 8.525 0 0 0 8.533-8.533v-34.133H384zM51.2 255.998h409.6v17.067H51.2zM51.2 221.864h409.6v17.067H51.2zM298.667 119.464h-85.333a8.536 8.536 0 0 0-8.533 8.533v34.133a8.536 8.536 0 0 0 8.533 8.533h85.333a8.53 8.53 0 0 0 8.533-8.533v-34.133a8.53 8.53 0 0 0-8.533-8.533zm-8.534 34.134h-68.267v-17.067h68.267v17.067z"></path>
		</symbol>
	
</svg>
